<?xml version="1.0" encoding="UTF-8"?>
<svg version="1.1" viewBox="0 0 2048 2048" width="1280" height="1280" xmlns="http://www.w3.org/2000/svg">
<path transform="translate(84,74)" d="m0 0h126l10 4 7 6 6 10 3 11h91l5-15 10-11 8-4 3-1h1610l16 3 15 6 14 8 13 12 9 10 8 14 7 17 3 11v1101l-5 17-6 13-7 12-9 11-10 9-13 8-16 7-12 3-20 2h-635l4 14 13 55 1 2h23l15 1 10 4 8 7 6 12 1 6v59l-2 11-6 10-7 6-7 3-5 1h-692l-12-5-7-7-5-10-1-4v-68l4-10 9-10 10-5 8-1h32l10-40 6-26v-5h-616l-32-1-15-3-15-6-13-8-11-9-9-10-9-14-7-16-4-13v-1104l8-24 9-16 9-11h2l2-4 10-8 15-9 14-5zm690 1367v1h5v-1zm110 0v1h260v-1z" fill="#322955"/>
<path transform="translate(327,105)" d="m0 0 2 3 2 9 5 9 7 6 10 4 23 1 128 1 93 1-3 1 4 7 11 19 14 24 8 14 20 34 8 14 10 17 29 49 12 21 8 13 9 15 12 21 17 28 13 22 15 26 8 14 6 11 6 9v4h5v1l-7 1-9 3-11 6-6 7-4 8v17l4 9 1 3h2l4 4 5 3 3 3 17 3 37 1 5 8 5 5 14 26 7 11 6 11 12 20 2 4-2 2 12 1 6 2 10 4 8 7 6 9 2 7v9l-3 10-9 12h6l7 11 16 27 15 25 7 12 8 13 1 5-1 2h36v1l-58 2h-166l-14 7-7 8-4 8v17l3 7 7 8 5 3 2 3 11 2 12 1 216 1 3 1v2l4 1 3 8 2 6 2 4 2 1 3 10 16 26 8 14 15 25 24 42 8 13 7 12-1 2-462 1-9 3-8 7-4 5-4 8-1 8 2 11 4 8 5 6 8 5 8 2 1260 1 61 1v130l-5 14-7 8-10 5-4 1h-1869l-9-3-8-7-4-5-3-6-1-6v-132l445-1 8-3 9-6 7-11 2-5v-9l-4-12-7-10-10-5-5-1-409-1-36-1v-882l2-10 7-9 8-7 8-3 113-1 13-2 9-6 6-7 4-9 2-7z" fill="#4D3F5C"/>
<path transform="translate(84,74)" d="m0 0h126l10 4 7 6 6 10 3 11-2 10-5 10-7 7-10 5-12 1-111 1-8 3-10 9-5 9-1 7-1 882 445 1 10 3 7 5 7 11 3 10v9l-6 12-5 6-9 6-7 2h-445l1 132 2 8 6 9 7 6 9 3h1869l11-4 7-6 5-10 2-7 1-130-1321-1-10-3-9-7-5-7-3-8-1-9 2-10 6-9 8-8 7-3 1264-1h62l-1-2v-852l-1-33-5-10-8-8-8-4-4-1-1581-1-23-1-10-4-9-8-5-11-1-11 4-13 10-11 8-4 3-1h1610l16 3 15 6 14 8 13 12 9 10 8 14 7 17 3 11v1101l-5 17-6 13-7 12-9 11-10 9-13 8-16 7-12 3-20 2h-635l4 14 13 55 1 2h23l15 1 10 4 8 7 6 12 1 6v59l-2 11-6 10-7 6-7 3-5 1h-692l-12-5-7-7-5-10-1-4v-68l4-10 9-10 10-5 8-1h32l10-40 6-26v-5h-616l-32-1-15-3-15-6-13-8-11-9-9-10-9-14-7-16-4-13v-1104l8-24 9-16 9-11h2l2-4 10-8 15-9 14-5zm690 1367v1h5v-1zm110 0v1h260v-1z" fill="#010000"/>
<path transform="translate(227,1566)" d="m0 0h204l9 2 8 5 7 8 4 9 1 8h55l2-11 6-10 8-7 11-4h915l9 2 9 6 6 7 6 14 13 38 10 30 11 31 10 30 15 43 17 50 13 37 10 30 15 43 3 13-1 11-5 10-7 7-8 4-9 2h-1464l-10-3-9-7-6-9-2-6v-13l5-17 15-43 19-56 11-31 11-33 15-43 17-50 15-43 10-29 4-9 6-8 9-6z" fill="#B4BECB"/>
<path transform="translate(536,1081)" d="m0 0h98l2 3 4 13 7 9 8 5 8 2 1260 1 61 1v130l-5 14-7 8-10 5-4 1h-1869l-9-3-8-7-4-5-3-6-1-6v-132l445-1 8-3 9-6 7-11 2-5z" fill="#979897"/>
<path transform="translate(227,1566)" d="m0 0h204l9 2 8 5 7 8 4 9 1 4v8l-4 12-9 10-10 5-4 1-177 1-3 8-9 26-11 32-9 26-12 35-10 29-5 13-5 17-5 12-5 17-9 24-5 17-7 18-1 5h1366l-5-16-8-23-14-41-11-32-12-35-10-29-9-26-14-41-10-28-2-9h-889l-11-4-10-9-5-11v-16l6-12 9-8 11-4h915l9 2 9 6 6 7 6 14 13 38 10 30 11 31 10 30 15 43 17 50 13 37 10 30 15 43 3 13-1 11-5 10-7 7-8 4-9 2h-1464l-10-3-9-7-6-9-2-6v-13l5-17 15-43 19-56 11-31 11-33 15-43 17-50 15-43 10-29 4-9 6-8 9-6z" fill="#020001"/>
<path transform="translate(515,1595)" d="m0 0h1l1 11 6 12 8 7 11 4 7 1 872 1v1l-665 1 7 2v1l-7 1 10 11 2 1v2l4 2 7 7 8 7 12 11 6 3-2 4-6 7-3 7-1 5v10l3 9 6 8 10 6 8 3 47 1 3 5 5 4 18 18 2 1v2l4 2 13 13v1l-262 1-9 1-7 2-10 5-6 7-4 9-1 13 4 11 7 8 8 5 3 1v2l7 1 339 1 4 1 5 5 4 5 8 7 8 8 8 7 10 9 5 4 1 5 6 1v3l-880 1 1-7 6-16 8-26 6-15 7-23 5-12 6-20 5-12 8-24 12-35 10-29 11-32 9-27 2-2 177-1 11-4 9-8 4-8 3-11h55z" fill="#CDD6DE"/>
<path transform="translate(1790,1566)" d="m0 0h20l18 2 17 4 19 7 16 8 12 8 10 8 10 9 9 9 12 16 10 17 8 20 4 13 3 17 4 50 3 47v26l-3 21-6 21-7 16-6 12-11 16-10 11-4 5-8 7-10 8-18 11-17 8-19 6-21 4-10 1h-32l-21-3-19-5-21-9-14-8-11-8-13-11-9-9-11-14-8-13-8-16-6-16-4-16-3-22v-18l6-90 3-22 5-19 6-15 8-16 11-16 13-15 12-11 15-11 18-10 14-6 21-6 12-2z" fill="#020101"/>
<path transform="translate(799,1338)" d="m0 0h449l2 1 12 53 4 16 5 22 4 15 5 14 4 5v2h-521l7-12 4-13 17-72 7-29zm85 103v1h260v-1z" fill="#979897"/>
<path transform="translate(1791,1630)" d="m0 0h19l13 2 12 4 14 7 14 10 9 9 9 12 8 16 5 16 4 49 3 45v26l-3 16-5 13-8 14-9 11-8 8-13 9-15 8-17 4-7 1h-32l-15-3-13-4-14-8-15-12-7-8-9-13-7-15-4-17-1-9v-12l3-49 3-42 3-17 4-12 7-14 9-12 12-12 10-7 12-7 16-5z" fill="#CCD6DE"/>
<path transform="translate(801,504)" d="m0 0 467 1 16 3 9 6 6 10 2 7v12l-3 7-4 6-5 5-9 6-3 1-465 1-14-1-10-3-9-6v-2h-2l-5-9-1-3v-17l6-11 8-7 8-4z" fill="#04C609"/>
<path transform="translate(640,1789)" d="m0 0h408l10 3 10 9 6 12v14l-4 10-6 7-10 6-9 2h-404l-9-2-8-5-7-7-4-9-1-4 1-13 6-12 8-7 7-3z" fill="#4E405D"/>
<path transform="translate(1380,660)" d="m0 0h375l14 1 10 4 8 7 5 8 2 5v15l-3 7-4 6-8 7-9 4-7 1h-388l-9-3-8-6-5-6-4-8-1-4v-12l3-7 6-9 10-7 5-2z" fill="#FB9947"/>
<path transform="translate(802,348)" d="m0 0 287 1 16 3 10 7 5 8 3 10v8l-4 10-6 8-7 6-7 3h-302l-10-3-11-10-4-7-1-4v-15l6-11 7-7 10-5z" fill="#04C609"/>
<path transform="translate(1008,661)" d="m0 0h267l10 3 10 9 5 10 1 3v14l-6 12-7 7-8 4-5 1-259 1-12-2-10-6-7-8-4-10v-14l6-12 7-6z" fill="#3FFFF5"/>
<path transform="translate(1194,349)" d="m0 0h254l12 3 8 5 7 10 3 9v10l-4 11-9 10-10 5-8 1h-255l-11-4-10-9-5-10-1-3v-12l4-10 8-9 12-6z" fill="#3FFFF5"/>
<path transform="translate(1138,816)" d="m0 0 246 1 10 3 9 7 7 14 1 9-3 12-7 9-8 6-5 2-6 1h-253l-9-4-8-6-6-10-2-6v-12l6-12 4-5 16-8z" fill="#3FFFF5"/>
<path transform="translate(1372,505)" d="m0 0h237l11 4 6 5 6 9 3 7 1 8-3 12-8 11-10 6-9 2h-234l-7-3-9-6-6-9-3-7v-15l5-10 7-8 9-5z" fill="#FC9947"/>
<path transform="translate(797,816)" d="m0 0h204l31 1 12 4 7 6 4 6 4 13-1 9-4 9-9 10-9 5-4 1h-229l-11-2-10-5-7-7-3-5-1-4v-17l4-8 8-9z" fill="#04C609"/>
<path transform="translate(543,275)" d="m0 0h7l10 3 11 7 72 72 7 10 2 4 1 13-4 13-8 10-70 70-10 7-9 3h-11l-12-5-6-5-6-10-2-5v-16l5-10 11-12 42-42-2-4-49-49-6-10-1-4v-15l6-12 9-8 9-4z" fill="#CCD6DD"/>
<path transform="translate(297,275)" d="m0 0h7l10 3 9 6 6 8 3 7 1 5v7l-3 10-6 10-49 49h-2l7 8 46 46 5 9 2 7v8l-3 10-6 9-8 6-10 4h-11l-10-4-10-8-74-74-6-12-1-9 2-10 6-10 77-77 10-6z" fill="#CCD6DE"/>
<path transform="translate(1551,349)" d="m0 0h215l13 4 7 6 6 10 2 5v15l-5 10-6 7-9 5-8 2h-216l-8-3-10-9-5-8-2-6v-14l6-11 8-8 8-4z" fill="#FC9947"/>
<path transform="translate(450,275)" d="m0 0 13 1 12 6 7 8 5 11v11l-5 17-9 24-20 55-15 41-8 20-6 8-6 5-8 4-3 1h-12l-10-4-9-7-6-10-2-7v-10l6-18 10-27 18-49 16-44 8-19 6-8 9-6z" fill="#CCD5DD"/>
<path transform="translate(1891,1700)" d="m0 0 2 2 2 14 6 84v26l-3 16-5 13-8 14-9 11-8 8-13 9-15 8-17 4-7 1h-32l-15-3-13-4-14-8-7-5 2-1v-2l-3-1v-5l5 1 16-6 16-8 16-9 13-9 11-9 18-18 12-16 11-17 13-24 10-23 7-24 3-13 5-2z" fill="#B5BFCB"/>
<path transform="translate(779,1441)" d="m0 0h495l3 11 4 8 3 4v2h-521l7-12 4-12z" fill="#969697"/>
<path transform="translate(799,660)" d="m0 0h108l11 3 7 4 7 7 5 10 1 4v9l-3 10-6 8-6 5-9 4-5 1h-112l-10-4-7-5-7-11-2-6v-13l3-8 7-9 10-7z" fill="#FC9947"/>
<path transform="translate(972,1161)" d="m0 0h103l11 4 10 9 6 12v15l-4 9-10 11-8 4-3 1h-105l-11-4-7-6-6-10-2-5v-15l4-9 9-10 6-4z" fill="#010001"/>
<path transform="translate(1173,1789)" d="m0 0h54l11 4 8 7 6 12 1 5v7l-3 10-6 8-6 5-5 3-9 2h-49l-11-4-8-6-6-9-2-6v-12l3-10 6-8 10-6z" fill="#4D3F5C"/>
<path transform="translate(1352,1789)" d="m0 0h53l11 4 8 7 5 8 2 7v12l-4 10-7 8-12 6-5 1h-48l-8-2-8-4-7-7-5-9-1-6v-8l4-11 6-8 9-6z" fill="#4E405D"/>
<path transform="translate(461,1789)" d="m0 0h51l10 3 9 7 6 10 2 7v10l-4 10-9 10-10 5-5 1h-50l-11-4-9-7-6-10-1-5v-12l4-10 8-9 10-5z" fill="#4E405D"/>
<path transform="translate(285,1789)" d="m0 0h47l9 2 9 6 6 7 4 11v12l-7 14-9 7-8 3-6 1h-41l-13-2-10-6-7-8-3-8v-14l4-11 6-7 9-5z" fill="#4E405D"/>
<path transform="translate(834,1676)" d="m0 0h18l16 1 11 4 7 5 6 9 3 12-1 10-4 8-7 8-8 5-6 2h-51l-10-4-9-7-5-8-2-7v-10l3-10 4-6 9-8 9-3z" fill="#4D3F5C"/>
<path transform="translate(1e3 1676)" d="m0 0h18l16 1 10 3 9 7 6 10 2 9-1 11-5 10-7 7-10 5-6 1h-48l-12-5-9-9-4-8-1-4v-10l3-10 6-8 8-6 8-3z" fill="#4D3F5C"/>
<path transform="translate(1170,1676)" d="m0 0h17l15 1 9 3 9 6 6 9 2 5 1 12-3 10-6 8-6 5-8 4-5 1h-49l-12-5-8-8-5-9-1-4v-10l3-10 7-9 9-6 7-2z" fill="#4D3F5C"/>
<path transform="translate(1319,1677)" d="m0 0h50l10 3 9 7 6 10 2 10-1 10-5 10-7 7-10 5-5 1h-48l-11-4-10-9-5-10-1-5v-7l3-10 6-9 8-6z" fill="#4D3F5C"/>
<path transform="translate(651,1677)" d="m0 0h50l11 4 8 7 5 8 2 6v14l-6 12-8 7-8 4-5 1h-48l-11-4-8-6-6-9-2-7v-11l4-11 9-10 9-4z" fill="#4D3F5C"/>
<path transform="translate(484,1677)" d="m0 0h50l11 4 8 7 5 8 2 6v13l-4 10-7 8-12 6-6 1h-46l-11-4-9-7-6-10-1-4v-13l4-10 8-9 10-5z" fill="#4D3F5C"/>
<path transform="translate(321,1677)" d="m0 0h45l10 3 8 6 6 8 3 9v11l-3 8-6 9-9 6-5 2-6 1h-45l-10-3-9-6-6-8-3-9v-11l4-11 7-8 8-5z" fill="#4D3F5C"/>
<path transform="translate(1793,1643)" d="m0 0h14l10 4 8 7 5 9 2 12v34l-2 11-4 8-5 5-5 4-7 3-5 1-13-1-11-6-7-8-3-7-1-6v-44l3-10 6-8 9-6z" fill="#4E405D"/>
<path transform="translate(1152,813)" d="m0 0h52l139 1 7 1 25 1v1h-242l2-2z" fill="#686072"/>
<path transform="translate(1212,658)" d="m0 0 60 2v1h-260v-1l57-1z" fill="#554963"/>
<path transform="translate(64,1114)" d="m0 0h2v2l4 2-2 5v69l-1 38-2-2z" fill="#B3BCC9"/>
<path transform="translate(279,283)" d="m0 0 2 1-78 78-2-1 67-67z" fill="#BEC7D0"/>
<path transform="translate(576,289)" d="m0 0 7 6 11 11 8 7 14 14 5 6 7 6 4 4v2l-4-2-52-52z" fill="#392E57"/>
<path transform="translate(1099,1177)" d="m0 0 3 4 3 12-1 14-3 7-5 3h-2l1-5 4-5 2-6v-15l-2-5z" fill="#ADB5C1"/>
<path transform="translate(1427,1631)" d="m0 0 5 1 5 15v2h-2l-5-9z" fill="#C6CED5"/>
<path transform="translate(1099,1177)" d="m0 0 3 4 3 12-1 7-2 1-1-15-2-5z" fill="#ABB1B9"/>
<path transform="translate(1277,505)" d="m0 0 8 1 7 5-2 2-6-4-8-2z" fill="#4B3E5C"/>
<path transform="translate(1468,1740)" d="m0 0 2 3 4 11v3h-2l-4-11z" fill="#AFB5BF"/>
<path transform="translate(1098,349)" d="m0 0 7 1 5 3 3 2v2l-5-2-7-3v-2z" fill="#4E405D"/>
<path transform="translate(944,1188)" d="m0 0h1l1 12 1 1v6l-3-3z" fill="#B2BBC7"/>
<path transform="translate(621,334)" d="m0 0 3 1 6 7 2 1v2l-4-2-7-7z" fill="#3C3158"/>
</svg>
