<?xml version="1.0" encoding="UTF-8"?>
<svg version="1.1" viewBox="0 0 2048 2048" width="1280" height="1280" xmlns="http://www.w3.org/2000/svg">
<path transform="translate(1522,370)" d="m0 0 4 1 142 142-2 4-8 8-7 8-85 85-5 6-8 7-21 21-7 8-15 14-14 14-7 8-13 12-16 16-7 8-13 12-17 17-7 8-12 11-15 15-7 8-16 15-5 4-7 8-11 12-10 9-18 18 1 4 124 124-2 4-3 1-2 4-130 130 2 4 36 36h6l12 12-1 5 155 155 7 6 7 8 92 92 8 7 16 17 13 13 7 10 4 8 2 9v9l-3 12-8 12-4 5h-2l-2 4-56 56-8 6-11 4-5 1h-10l-12-3-11-7-12-11-13-13-8-7-8-8-7-8-254-254-5 1-11-11-1-7-36-36-1-2-4-1-2 4-134 134-4-2-123-123-4 2-8 7-14 14-7 8-7 7-7 6h-2l-2 4-4 4h-2l-2 4-15 16-10 9-13 13-7 8-8 8-8 7-14 14-7 8-7 7-8 7-14 14-7 8-7 7-8 7-14 14-7 8-15 14-14 14-7 8-17 16-12 12-7 8-7 7-8 7-13 13-7 8-8 8-8 7-13 13h-2l-2 4-3 3-5-2-141-141 1-4 353-353-6-7-120-120v-3l8-7 111-111 7-8 10-9 1-3-36-36-2-3-6 1-13-13 1-5-167-167-6-10-12-25-17-35-11-23-19-39-12-25-29-60-8-17 1-3 52 25 27 13 28 13 22 11 63 30 27 13 14 7 13 12 157 157h6l11 11 1 7 38 38 3-1 5-5 9-10h2v-2l8-7 25-25 5-6 8-7 71-71 2-3 4 1 124 124 4-1zm-1039 71 2 6 8 16 7-6 5-5-4-3-16-8zm41 20-17 17-4 3 1 5 14 29 11 23 12 25 13 27 8 17h3l16-16 7-8 43-43 8-7 7-7 4-3-1-3-29-14-33-16-28-13-16-8-17-8zm986 917-16 16v2h-2l-7 8-43 43-8 7-13 13-2 1 1 4 37 37 3-1 7-8 83-83-2-4-35-35zm53 53-2 4-4 2-60 60v2l-4 2v2l-4 2v2l-4 2-13 13 2 4 35 35 4-1 88-88 3-2-2-4-27-27-8-7z" fill="#484C53"/>
<path transform="translate(904,987)" d="m0 0 4 1 12 11 27 27v2l4 2 63 63 7 8 28 28 2 4-27 27-6 7-8 7-22 22-6 7-8 7-22 22-6 7-8 7-50 50-7 8-7 7-7 6h-2l-2 4-4 4h-2l-2 4-15 16-10 9-13 13-7 8-8 8-8 7-14 14-7 8-7 7-8 7-14 14-7 8-7 7-8 7-14 14-7 8-15 14-14 14-7 8-17 16-12 12-7 8-7 7-8 7-13 13-7 8-8 8-8 7-13 13h-2l-2 4-3 3-5-2-141-141 1-4 353-353 2-4 10-9 123-123z" fill="#FB7746"/>
<path transform="translate(1522,370)" d="m0 0 4 1 142 142-2 4-8 8-7 8-85 85-5 6-8 7-21 21-7 8-15 14-14 14-7 8-13 12-16 16-7 8-13 12-17 17-7 8-12 11-15 15-7 8-16 15-5 4-7 8-11 12-10 9-158 158-4-2-20-20-8-7-114-114-1-3 135-135 3-4 5-3z" fill="#FC7746"/>
<path transform="translate(289,673)" d="m0 0 16 2 11 4 13 8 7 7 7 10 5 10 1 3 9-3 11-3h20l14 4 9 5 9 7 7 7 7 11 5 13 1 6v13l-3 14-4 12 9 3 10 6 12 11 8 14 3 8 2 10v18l-5 16-9 14-7 7-11 7-10 4-17 3-19 3-10 4-10 6-10 9-7 11-5 12-2 10-1 94-24 1-3-1-1-90-2-14-5-13-8-11-4-5-10-7-11-5-11-3-12-1-110-1-12-3-14-7-10-9-6-7-8-16-2-6-1-7v-9l3-16 8-16 7-8 7-7 15-8 3-1-1-7-4-14v-20l6-18 7-10 7-8 13-9 10-4 8-2h21l13 4 7 3 1-5 6-12 9-10 7-7 14-7 13-3z" fill="#FC7746"/>
<path transform="translate(638,563)" d="m0 0 4 2 327 327 7 6 5 6 7 6v2l4 2v2l4 2v2l4 2 5 6 7 6v2l4 2v2l4 2v2l4 2v2l4 2 439 439-2 4-32 32-4-2-4-5-8-7-812-812 1-4z" fill="#49BBD8"/>
<path transform="translate(1861,415)" d="m0 0h23l19 3 21 7 19 10 14 11 12 11 11 14 8 13 7 15 5 17 3 19v22l-2 15-7 24-11 21-10 13-11 12-13 11-13 8-15 7-19 6-20 3h-22l-20-3-18-6-16-8-11-7-15-13-12-13-9-13-8-16-5-14-3-10-3-25 1-16 2-14 6-20 4-10 10-17 9-11 9-10 14-12 13-8 14-7 19-6z" fill="#AEAFAF"/>
<path transform="translate(1202,129)" d="m0 0h24l14 2 19 6 16 8 11 8 10 9 5 5 10 12 10 18 7 21 2 9 1 9v19l-2 14-4 15-5 12-9 16-9 11-6 7-11 9-14 9-15 7-17 5-24 3-21-2-16-4-13-5-15-8-14-11-10-10-10-13-11-21-6-21-2-16v-12l3-22 6-18 10-19 13-16 8-8 13-10 19-10 19-6z" fill="#FDD463"/>
<path transform="translate(1271,1690)" d="m0 0h16l15 2 16 5 16 8 11 8 10 9 10 12 9 16 6 16 3 17v21l-3 17-6 17-9 16-8 10-15 16-9 12-7 14-5 17 8 2v19l-2 1h-96l-1-1v-19l6-1-3-14-7-16-9-12-11-12-7-8-9-12-8-16-5-15-3-21 1-15 3-16 5-15 9-16 8-10 6-7 11-9 11-7 12-6 16-5z" fill="#FDD464"/>
<path transform="translate(352,1179)" d="m0 0 18 1 16 3 16 6 16 9 10 8 9 8 11 14 7 12 6 15 4 16 1 8v22l-3 16-5 15-9 17-10 13-6 7-14 11-16 9-16 6-12 3-9 1h-20l-14-2-16-5-16-8-11-7-15-14-10-13-8-14-6-17-3-14-1-8v-15l3-19 6-18 9-17 9-11 5-6 11-9 11-8 17-8 16-5z" fill="#FDD463"/>
<path transform="translate(1219,34)" d="m0 0 19 1 1 1 8 43 18 5h5l11-12 9-11 8-9 6 1 10 6 23 13 3 2-1 7-11 32-1 6 7 8 7 7 6-1 36-12 5 1 5 10 10 17 6 10-1 4-11 10-8 7-13 11 1 9 4 13 12 3 31 6 2 2v46l-12 3-33 7-5 16v6l12 11 11 9 10 9-1 5-15 26-6 10-2 1-42-14-4 2-12 12 1 7 12 35-1 4-17 10-21 12-4-2-12-13-9-11-6-7-9 1-14 3-4 23-4 20-2 3h-46l-2-5-8-39v-2l-18-4h-5l-11 13-9 11-8 9-5-1-28-16-9-6 1-5 12-35v-5l-14-14-11 3-29 10h-5l-10-17-12-21 1-4 14-12 12-11 6-5-1-7-4-14-9-3-35-7-1-1v-47l28-6 16-4 3-7 3-10v-5l-14-13-11-9-8-7 1-5 13-23 6-11 2-3 9 2 36 12 14-14 1-3-7-20-7-21 2-4 20-11 17-10 5 2 9 11 10 11 7 9 10-1 12-3 4-16 5-27 1-2zm-11 17-2 2-6 29-2 11-9 3-29 8-7 2-8-8-18-22-5-1-9 5-1 3 12 36 1 5-4 2-27 27v2l-6-1-34-11-5 1-5 9 2 4 13 12 11 9 5 5-1 8-8 30-3 8-40 8-2 3v11l8 3 35 7 9 35 2 6v5l-13 11-10 9-7 5-1 3 6 11 7-1 32-11 5 1 7 8 20 20 3 2-1 8-9 27-2 7 5 4 5 3 4-1 11-12 9-11 6-7 9 2 36 9h2l1 10 6 33h14l3-9 6-32v-2l12-2 31-9 4 1 9 11 11 12 6 7 5-1 8-5-1-5-11-33v-5l10-9 20-20 1-2 6 1 33 11h4l6-10-2-4-11-10-11-9-7-6 1-8 8-29 2-9 41-9 2-2v-12l-4-2-35-7-4-2-8-30-3-10v-5l15-13 11-10 5-4-2-5-3-6-1-1-8 1-29 10h-6l-32-32 12-36 1-5-9-6-6 1-9 11-9 10-7 9-16-4-29-8-3-12-6-29-2-2z" fill="#4A4E55"/>
<path transform="translate(1313,870)" d="m0 0 127 127-2 4-3 1-2 4-132 132-7-8-108-108-5-4-7-8 1-2h2l2-4 129-129z" fill="#AEAFAF"/>
<path transform="translate(1050,1133)" d="m0 0 4 1 125 125-2 1-2 4-134 134-4-2-125-125 32-32 6-5 7-8 23-23 6-5 7-8 23-23 6-5 7-8z" fill="#AEAFAF"/>
<path transform="translate(777,859)" d="m0 0 8 6 121 121-6 7-12 11-117 117-4 3-4-2-123-123v-3l8-7 111-111 7-8 10-9z" fill="#AEAFAF"/>
<path transform="translate(1038,598)" d="m0 0 4 1 124 124-2 5-133 133h-2v2l-4-1-7-8-114-114-2-5 12-12 3-4h2v-2l8-7 25-25 5-6 8-7 71-71z" fill="#AEAFAF"/>
<path transform="translate(1747,1434)" d="m0 0h142l5 1 1 108 35 15 115 48 2 2-10 4-49 19-19 7h-3l7 8 36 36-2 4-7 7-2 3-5-1-40-40-2-1-3 10-22 58-4 11-3-1-12-27-15-36-11-26-18-43-7-17-109-1-1-18v-45zm147 131v17l-15-1-1 2 15 36 17 41 7 18h4l13-34 6-15 10-5 41-16 1-3-28-11-35-15-29-12z" fill="#49BAD7"/>
<path transform="translate(789,1716)" d="m0 0h26l16 3 12 5 13 7 10 8 7 6 8 10 8 13 6 14 4 17 1 16-2 18-6 18-8 15-11 14-7 7-13 9-14 7-17 5-14 2h-13l-18-3-14-5-15-8-11-9-10-10-9-13-8-17-4-15-1-7v-20l2-12 5-16 8-15 7-9 9-10 12-10 17-9 17-5z" fill="#49BAD7"/>
<path transform="translate(2e3 826)" d="m0 0h19l1 1v20l-2 12-5 10-8 8-9 4-5 1-30 1h-96l-20 1-5 3-3 5 1 7 3 6 4 2 51 1 10 2 8 4 8 8 4 8 2 10v14h39l12 2 12 5 10 7 7 7 8 14 3 11 1 17v212l-1 19-2 9-7 14-8 9-11 8-9 4-16 3h-100l-14-3-13-7-9-8-8-12-4-10-2-14v-237l2-9 4-10 7-11 8-8 13-8 10-3 7-1h41l-2-17-4-6-1-1-47-1-15-2-10-5-7-8-4-8-2-9 1-10 6-12 4-5 10-6 8-2 142-1 8-3 3-3 1-10v-18zm-127 148-13 2-9 5-5 5-6 8-3 9-1 7v35l1 1h162v-42l-3-9-5-8-9-8-11-4-7-1zm-37 92v174l3 13 6 10 7 6 8 4 10 2h96l12-3 8-5 7-7 5-10 1-4 1-22v-157l-1-1z" fill="#4A4E55"/>
<path transform="translate(588,612)" d="m0 0 4 1 8 7 28 28v2h2l7 8 31 31 6 5 6 7 6 5 7 8 27 27 8 7 50 50v2h2v2h2v2h2l7 8 421 421 2 1v2l4 2 171 171 7 8 21 21-1 4-5 6-7 6-4-2-809-809-6-5v-2h-2v-2h-2v-2h-2l-3-4 1-5z" fill="#49BBD8"/>
<path transform="translate(666,534)" d="m0 0 4 1 16 15 808 808 2 5-10 9-3 4-4-2-184-184-6-5-7-8-23-23-6-5-7-8-251-251-4-3v-2l-4-2v-2l-4-2v-2l-4-2v-2l-4-2v-2l-3-1-5-6-6-5-7-8-300-300 1-4 8-7z" fill="#49BBD8"/>
<path transform="translate(796,1673)" d="m0 0h11l29 2 28 5 19 5 26 9 31 15 23 15 12 9 15 13 8 7 15 16 11 14 11 16 7 11-1 6-8 12-11 16-13 15-2 3h-2l-2 4-13 13-11 9-14 11-17 11-14 8-27 13-34 11-24 5-12 2-25 2h-21l-25-2-31-6-26-8-16-6-29-14-14-9-12-8-11-9-14-12-18-18-7-8-12-16-14-21 1-5 12-18 10-14 10-11 7-8 15-15 11-9 10-8 20-13 16-9 24-11 33-11 29-6 19-2zm0 21-27 2-28 5-27 8-26 11-20 11-22 15-15 13-8 7-12 12v2h-2l-8 10-13 18-3 4 2 4 14 19 9 10 7 8 13 13 11 9 16 12 22 13 25 12 33 11 26 5 31 3h15l25-2 29-5 26-8 20-8 16-8 14-8 15-10 16-13 10-9 17-17 11-14 10-14v-4l-8-12-10-13-14-15-12-12-14-11-12-9-21-13-27-13-30-10-23-5-23-3-15-1z" fill="#4A4E55"/>
<path transform="translate(754,245)" d="m0 0h19l1 1v18l14 3 7 2 6-10 2-4 6 1 11 6 1 4-7 12 1 4 12 12 5-1 10-6h4l8 14-1 4-14 8 5 20 18 1 1 5v13l-1 2h-18l-3 14-1 8 13 8 1 2-9 16-5-2-12-6-14 14 1 4 6 10v4l-14 8h-3l-8-13v-2l-22 6v17l-1 1h-18l-1-1-1-17-20-5h-2l-2 6-5 9-14-7-3-2 1-6 6-9-1-4-8-7-4-5-3-1-12 7-5-1-8-14v-2l14-8 1-3-6-19h-16l-1-1v-19l5-1h13l5-18v-3l-15-8 2-5 7-12 5 1 10 6 4-1 12-12-1-5-6-10 2-4 14-8 4 4 5 9v2l21-5h2l-1-18zm1 39-15 4-11 6-11 10-9 14-4 12-1 5v19l4 14 6 11 11 12 11 7 12 5 14 2 13-1 16-5 11-7 10-10 6-10 5-13 1-4v-20l-4-14-6-11-9-10-7-6-14-7-11-3z" fill="#4A4E55"/>
<path transform="translate(1721,721)" d="m0 0h2l7 8 5 6-2 3h-2l-2 4-19 19 1 4 6 12 3 9 1 6v17l-4 16-7 14-11 12-9 7-10 5-13 4-8 1h-11l-15-3-16-8-5 1-7 8-17 17h-2l-7-8-5-4 1-4 3-4h2l2-4h2l2-4h2l2-4 8-7 1-4-7-14-4-14v-22l4-14 7-13 11-12 9-7 12-6 12-3h23l14 4 13 7h3l5-5 5-6 5-5 5-4zm-72 35-12 3-12 7-8 9-6 11-2 8v15l3 12 3 4 4-2 10-9 20-20v-2l4-2 15-15v-2l4-2 2-4h2l2-5-10-4-9-2z" fill="#494D54"/>
<path transform="translate(1829,1517)" d="m0 0 5 1 37 15 24 10 35 15 115 48 2 2-10 4-49 19-19 7h-3l7 8 36 36-2 4-7 7-2 3-5-1-40-40-2-1-3 10-22 58-4 11-3-1-12-27-15-36-11-26-18-43-7-17-5-12-17-41-5-11zm65 48v17l-15-1-1 2 15 36 17 41 7 18h4l13-34 6-15 10-5 41-16 1-3-28-11-35-15-29-12z" fill="#494D54"/>
<path transform="translate(1215,185)" d="m0 0 13 2 12 4 11 7 6 5 4 5 8 13 4 13 1 4v13l-4 16-7 13-9 10-10 7-10 5-14 3-17-1-15-5-11-7-7-6-9-13-5-13-1-4v-21l4-14 8-13 7-8 10-7 11-5 7-2z" fill="#484C53"/>
<path transform="translate(1553,1753)" d="m0 0h11l11 3 10 7 11-7 11-3h10l13 4 9 7 7 10 3 12v9l-2 9-7 12-14 15-25 25h-2l-2 4h-2l-1 3-8 8-4-2-52-52-7-11-3-11v-8l3-11 6-10 8-7 8-4z" fill="#FC7746"/>
<path transform="translate(441,138)" d="m0 0 15 1 12 4 11 7 7 6 9 13 5 14 1 5v13l-2 10-5 12-7 10-8 8-10 6-12 4-6 1h-16l-12-3-13-7-7-6-8-11-5-10-3-11v-17l3-12 7-13 9-10 10-7 12-5z" fill="#FC7746"/>
<path transform="translate(316,1545)" d="m0 0h13l11 2 12 6 11 9 8 11 5 13 2 14-2 14-5 12-7 10-7 7-12 7-13 4h-19l-13-4-11-7-6-5-6-8-7-14-2-9v-14l3-12 6-12 9-10 7-6 13-6z" fill="#AEAFAF"/>
<path transform="translate(1624,1138)" d="m0 0 15 1 12 4 11 6 10 9 8 10 6 13 3 14v11l-2 12-5 12-5 9 4 2 2 4 4 2 37 37 5 6 4 3v2l4 2 8 8-2 4-8 8-2 3-5-2-64-64-5 1-12 6-13 3h-16l-14-3-12-6-11-9-8-10-7-15-2-7-1-8v-9l3-16 8-16 11-12 10-7 11-5 8-2zm-3 21-13 4-9 6-7 7-6 12-2 7v13l4 13 7 10 7 6 12 6 5 1h14l10-3 11-7 8-9 4-8 2-8v-13l-4-13-7-10-8-7-10-5-9-2z" fill="#4A4E55"/>
<path transform="translate(1618,1486)" d="m0 0 5 2 21 21 4 6 1 4v7l-3 9-12 14-15 15h-2l-2 4h-2l-2 4h-2l-2 4-23 23-9 6-5 2h-10l-11-6-21-21-1-4 14-14 8-7z" fill="#AEAFAF"/>
<path transform="translate(796,1769)" d="m0 0h11l12 3 9 5 8 7 7 12 3 11v11l-3 12-7 11-9 8-9 5-9 2h-15l-12-4-9-7-8-9-5-11-1-4v-17l4-12 7-9 9-8 12-5z" fill="#484C53"/>
<path transform="translate(1210,205)" d="m0 0h7l15 4 8 6 5 5 5 7 4 14v9l-3 11-5 8-6 7-8 5-13 4h-11l-12-4-10-7-6-8-4-8-2-10v-7l4-13 7-10 8-7 9-4z" fill="#FDD062"/>
<path transform="translate(1038,447)" d="m0 0 5 1 5 6 8 7 37 37 1 4-5 4-7 8-8 8-7 8-15 14-11 11-4-2-18-18-8-7-15-16-10-10 1-4zm1 28-25 25 6 7 19 19 4-2 22-22-1-4-23-23z" fill="#4A4E55"/>
<path transform="translate(1039,1442)" d="m0 0 4 2 10 10 16 14 7 8 13 14 5 5-3 5-50 50-4-2-51-51 2-5 10-9 12-14 9-9 16-14zm-1 29-24 24 6 7 19 19 4-2 22-22-1-4-8-7-12-12-2-3z" fill="#4A4E55"/>
<path transform="translate(1536,944)" d="m0 0 4 1 52 52-2 4-51 51-4-2-14-14-8-7-13-13-7-8-9-9 1-4 11-10 7-8 9-10 8-7 12-12 3-1zm1 28-22 22-3 2 1 4 24 24 7-6 7-8 8-7 4-4-2-4-23-23z" fill="#494D54"/>
<path transform="translate(541,944)" d="m0 0 4 1 7 8 16 15 13 13 7 8 8 7-1 4-19 19-7 8-16 15-10 10-4-2-51-51 1-4 10-9 18-18 7-8 8-7zm0 28-25 25v2l8 7 14 14 2 3h4l4-5 2-1v-2h2l7-8 8-8-1-4-6-5-18-18z" fill="#4A4E54"/>
<path transform="translate(339,468)" d="m0 0h13l12 3 11 7 8 9 5 10 3 11v14l-4 11-6 9-4 5-13 10-4 5-3 7-2 17-1 1-18-1-1-1 1-17 4-13 7-10 11-10 6-5 4-7 2-7v-7l-4-10-5-5-6-4-12-2-8 2-6 4-6 7-4 12-3 1-16-1-1-2 4-16 6-10 5-6 11-7 8-3z" fill="#4A4E55"/>
<path transform="translate(758,309)" d="m0 0h12l10 3 8 6 6 7 4 8 1 4v15l-4 10-5 7-8 6-11 4h-15l-10-4-9-7-6-10-2-7v-14l4-10 6-8 8-6z" fill="#AEAFAF"/>
<path transform="translate(1536,461)" d="m0 0h13l11 4 8 6 6 9 3 7 1 6v8l-4 12-7 9-10 6-9 3h-12l-11-4-8-6-7-10-3-10v-10l3-10 8-11 9-6z" fill="#484C53"/>
<path transform="translate(157,1461)" d="m0 0h15l11 4 9 8 6 11 1 4v15l-4 10-6 8-9 6-10 3h-12l-11-4-10-9-6-11-1-4v-14l5-12 7-8 11-6zm6 20-7 3-5 6-1 8 3 7 5 4 3 1h8l6-4 3-4 1-8-3-8-6-4z" fill="#4A4E55"/>
<path transform="translate(69,653)" d="m0 0 13 2 8 4 7 6 5 8 3 11v9l-3 10-7 10-11 9-3 6-1 11h-20v-9l2-9 5-10 16-16 1-9-3-7-5-4-9-1-6 3-4 5-2 6h-19l-1-4 3-11 7-10 10-7 6-2z" fill="#4A4E55"/>
<path transform="translate(1879,485)" d="m0 0 10 1 9 3-1 8-17 60-13 45-2 5-9-1-9-3-1-4 11-39 16-56 5-18z" fill="#484C53"/>
<path transform="translate(1278,1728)" d="m0 0h1l1 60h31l1 2-13 29-12 28-5 13h-2l-1-37v-23h-31v-5l7-14 11-26 8-18z" fill="#FDFDFD"/>
<path transform="translate(1692,779)" d="m0 0 4 2 3 9 1 7v10l-3 12-6 11-6 7-11 7-13 4h-10l-16-4-4-3 2-5 12-11 44-44z" fill="#FC7746"/>
<path transform="translate(1825,503)" d="m0 0 4 1 5 4 6 7-1 4-23 23-3 2 1 5 13 12 12 12-1 6-10 10-5-2-18-18-2-1v-2l-4-2-13-13-3-4 1-4 5-5 13-12z" fill="#484C53"/>
<path transform="translate(1916,503)" d="m0 0 4 1 12 11 24 24 5 6-2 5-7 7-8 7-10 11-8 7-7 7-4-2-10-10 1-5 13-12 9-10 3-2v-4l-15-15-2-1v-2l-4-2-5-6 1-5 6-6h2z" fill="#484C53"/>
<path transform="translate(1234,1924)" d="m0 0h93l2 1v19l-2 1h-96l-1-1v-19z" fill="#4C5057"/>
<path transform="translate(1230,1959)" d="m0 0h98l1 1v18l-1 1h-98z" fill="#484C53"/>
<path transform="translate(802,1788)" d="m0 0 10 2 6 4 6 7 3 10-1 9-6 10-7 5-8 2h-7l-8-3-7-6-4-7-1-4v-9l3-8 4-5 10-6z" fill="#49BBD8"/>
<path transform="translate(353,1236)" d="m0 0h12l1 4v71l-1 2h-19v-76z" fill="#484C53"/>
<path transform="translate(518,302)" d="m0 0h10l10 5 5 8 1 3v10l-4 8-6 5-9 3-10-1-6-4-5-6-2-5v-11l6-10z" fill="#AEAFAF"/>
<path transform="translate(1469,1670)" d="m0 0 11 2 6 5 3 5 1 10-4 9-8 6-10 1-8-3-6-7-2-5v-8l4-8 6-5z" fill="#FC7A47"/>
<path transform="translate(1257,1993)" d="m0 0h31l14 1v18l-1 1h-44l-1-2v-16z" fill="#4D5057"/>
<path transform="translate(89,1201)" d="m0 0h10l6 3 5 6 1 2v10l-4 6-5 4-5 2-8-1-5-3-4-4-2-6 1-9 5-7z" fill="#AEAFAF"/>
<path transform="translate(1214,909)" d="m0 0 5 2 4 5 8 7 9 9 5 7-13 13-7-6-15-15-7-6-1-4 7-6z" fill="#484C53"/>
<path transform="translate(1178,945)" d="m0 0 5 2 21 21 5 7-12 12-5-2-26-26v-3l8-7z" fill="#484C53"/>
<path transform="translate(1250,873)" d="m0 0 4 2 12 12 8 7 4 6 3 3-13 13-8-6-21-21-1-4 7-6z" fill="#484C53"/>
<path transform="translate(926,1197)" d="m0 0 5 1 21 21 5 6-2 4-9 10-5-2-25-25-1-3 5-5z" fill="#484C53"/>
<path transform="translate(820,1304)" d="m0 0 5 3 5 6 8 7 7 7 5 7-7 8-3 3-6-1-8-7-17-17-1-5 10-10z" fill="#494D54"/>
<path transform="translate(963,1161)" d="m0 0 4 1 21 21 5 6-2 4-9 10-5-2-25-25-1-3 5-5 5-6z" fill="#484C53"/>
<path transform="translate(999,1125)" d="m0 0 5 2 19 19 6 7-2 4-9 10-5-2-26-26 2-5 6-5z" fill="#484C53"/>
<path transform="translate(568,1556)" d="m0 0 5 2 5 6 8 7 7 7 5 7-2 4-8 8-5-1-8-7-18-18v-5l10-9z" fill="#484C53"/>
<path transform="translate(639,1484)" d="m0 0 5 1 6 7 8 7 7 7 4 7-1 4-8 8-4-1-6-4-21-21-1-4 7-6z" fill="#494D54"/>
<path transform="translate(604,1520)" d="m0 0 5 2 4 5 8 7 8 8 4 6-1 5-8 8-4-1-6-4-21-21-1-4z" fill="#494D54"/>
<path transform="translate(675,1448)" d="m0 0 5 1 6 7 8 7 7 7 4 7-1 4-7 7-4 1-8-6-20-20-1-4 7-6z" fill="#494D54"/>
<path transform="translate(1321,802)" d="m0 0 4 1 21 21 6 7-3 5-7 7-5-1-8-7-19-19 1-4 6-5z" fill="#494D54"/>
<path transform="translate(890,1233)" d="m0 0h5l7 8 8 7 7 7 5 7-9 9-2 3-4-1-10-9-17-17 1-5 6-5z" fill="#484C53"/>
<path transform="translate(712,1412)" d="m0 0 5 2 6 7 8 7 7 8 3 5-1 4-8 8-5-1-10-9-16-16-1-4 8-7z" fill="#494D54"/>
<path transform="translate(746,1377)" d="m0 0 6 1 6 7 8 7 8 9 3 4-1 4-8 8-6-1-8-7-17-17-1-5 8-7z" fill="#494D54"/>
<path transform="translate(783,1341)" d="m0 0 5 1 6 7 2 1v2l4 2 8 8 5 7-1 4-9 9-5-2-8-7-17-17-1-4 3-3h2l2-4z" fill="#484C53"/>
<path transform="translate(1285,838)" d="m0 0 4 1 21 21 6 7-6 8-6 5-4-2-26-26 1-4 6-5z" fill="#484C53"/>
<path transform="translate(855,1269)" d="m0 0 5 1 9 10 13 13 3 4-1 4-10 10-4-2-26-26 1-5 8-7z" fill="#484C53"/>
<path transform="translate(1357,766)" d="m0 0 4 1 24 24 2 3-1 5-8 8-5-1-8-7-11-11-7-6-1-5 8-7z" fill="#494C53"/>
<path transform="translate(1429,694)" d="m0 0 4 1 4 5 8 7 13 13 1 6-9 9-5-1-8-7-13-13-5-4-1-5 7-6z" fill="#494D54"/>
<path transform="translate(1393,730)" d="m0 0 4 1 25 25 1 5-7 8-4 2-6-3-24-24 1-4 6-5z" fill="#494D54"/>
<path transform="translate(1464,659)" d="m0 0 5 1 24 24 2 3-1 4-8 8-4 1-12-11-16-16 1-5 3-1v-2l5-5z" fill="#494D54"/>
<path transform="translate(1537,586)" d="m0 0 4 2 24 24 1 6-5 6-4 3-5-1-8-7-18-18-1-3z" fill="#484C53"/>
<path transform="translate(1501,623)" d="m0 0 4 1 24 24 2 3-1 4-9 9-4-1-8-7-19-19v-4l8-7z" fill="#494D54"/>
<path transform="translate(1538,480)" d="m0 0h9l6 4 4 5 1 3v7l-3 6-6 5-3 1h-7l-7-3-4-4-2-6 1-8 7-8z" fill="#FC7746"/>
<path transform="translate(1281,1543)" d="m0 0 5 3 19 19-2 4-11 11-4-2-20-20 2-4 5-5z" fill="#4C5056"/>
<path transform="translate(22,1045)" d="m0 0 5 2 11 11-7 8-16 16-7-6-7-7 2-5 8-7 7-8z" fill="#4E5258"/>
<path transform="translate(64,1045)" d="m0 0 4 2 19 19-1 5-3 1-2 4h-2l-2 4-3 2-10-9-10-10v-2h-2l-1-3z" fill="#4B4F56"/>
<path transform="translate(1331,1593)" d="m0 0 4 2 20 20-2 4-9 9-1 2-5-2v-2l-4-2-10-10-5-6 1-4z" fill="#4B4F56"/>
<path transform="translate(13,994)" d="m0 0 4 2 20 20v3l-8 7-4 5-4-2-7-6-7-8-7-7 6-7z" fill="#4A4E55"/>
<path transform="translate(1289,1593)" d="m0 0 4 2 7 6v2l4 2-1 4-16 16-4 5-5-2-10-10 1-4 18-18z" fill="#494D54"/>
<path transform="translate(1340,1543)" d="m0 0 4 1 5 6 6 5-1 4-8 7-5 5-7 8-4-1-12-12 6-7z" fill="#4A4E55"/>
<path transform="translate(73,994)" d="m0 0 8 6 5 5 1 4-11 11-7 8-3 3-4-2-5-5-6-5 1-4z" fill="#4A4E55"/>
<path transform="translate(1138,1647)" d="m0 0 4 2 14 14-2 4-11 11-5-3-12-12 1-4 10-10z" fill="#4B4F56"/>
<path transform="translate(198,547)" d="m0 0 5 3 5 5 7 8-2 4-9 10-5-1-14-14 2-4z" fill="#4C5056"/>
<path transform="translate(162,512)" d="m0 0 4 1 14 14-2 4-11 11h-2v-2l-4-2-7-8-4-3 2-5z" fill="#4E5258"/>
<path transform="translate(166,547)" d="m0 0 7 6 7 7-2 4-13 13-4-1-5-5-5-4-1-4 13-13z" fill="#4A4E55"/>
<path transform="translate(1141,1612)" d="m0 0 4 1 11 11-1 4-14 14-6-4-5-6-3-2 1-5 11-10z" fill="#4E5259"/>
<path transform="translate(200,512)" d="m0 0 5 1 6 7 4 3-1 5-13 13-4-1-10-10-1-3 7-8 5-4z" fill="#4D5057"/>
<path transform="translate(1106,1647)" d="m0 0 14 12 1 3-8 7-8 8-4-1-10-10 1-5z" fill="#494D54"/>
<path transform="translate(1102,1612)" d="m0 0 5 1 8 9 5 4-1 4-11 11-4-1-14-14 6-8z" fill="#4C5057"/>
<path transform="translate(1867,1555)" d="m0 0 7 1 20 9 1 4v11l-1 2h-16l-8-18z" fill="#4ABAD7"/>
<path transform="translate(1575,277)" d="m0 0 5 1 11 6-1 7-4 12-2 1-12-5-7-5 1-4 7-10z" fill="#4D5158"/>
<path transform="translate(1604,155)" d="m0 0 5 1v18l-9 3-7 2-2-1-6-17 1-3z" fill="#51545B"/>
<path transform="translate(1632,160)" d="m0 0 6 1 14 7 1 3-10 15-5-1-11-6 1-8z" fill="#4C5056"/>
<path transform="translate(1553,249)" d="m0 0h3l7 13v4l-15 10-3-1-8-16 1-5 13-4z" fill="#4C5056"/>
<path transform="translate(1669,187)" d="m0 0 5 5 6 12v4l-16 6h-3l-7-14 2-4 9-6z" fill="#4D5057"/>
<path transform="translate(961,1404)" d="m0 0 4 2 9 9 2 1-1 5-11 11-4-1-11-11v-4l8-7z" fill="#4F5359"/>
<path transform="translate(589,1033)" d="m0 0 5 2 11 11-3 5-3 1-2 4-4 4-5-1-11-11 1-4 8-7z" fill="#4F5259"/>
<path transform="translate(1562,171)" d="m0 0 3 1 8 11 2 2-1 4-10 10-5-2-12-9 2-4z" fill="#51545B"/>
<path transform="translate(875,1319)" d="m0 0 4 1 11 11-1 4-9 9-1 2-5-1-11-11 1-4z" fill="#4B4F56"/>
<path transform="translate(1373,821)" d="m0 0 4 1 3 3v2l4 2 4 3-1 5-11 11-4-1-11-11 1-4z" fill="#4D5157"/>
<path transform="translate(1145,592)" d="m0 0 4 2 3 3v2l4 2 4 4-2 4-11 11-4-2-11-11 2-4 6-5z" fill="#4E5258"/>
<path transform="translate(1087,536)" d="m0 0 5 1 11 11-2 4-11 11-5-3-10-10 2-4z" fill="#4A4E54"/>
<path transform="translate(904,1348)" d="m0 0 4 1 11 11-1 4-3 1-2 4-6 6-4-1-11-11 1-4z" fill="#4B4F55"/>
<path transform="translate(989,1433)" d="m0 0 4 1 12 12-7 8-5 6-3 1-13-13 1-4 9-8z" fill="#4C5057"/>
<path transform="translate(989,535)" d="m0 0 5 2 4 5 7 6-2 4-8 7-3 4h-3l-7-8-5-4 1-4 10-10z" fill="#4E5258"/>
<path transform="translate(932,1376)" d="m0 0 4 1 12 12-12 14-5-1-11-11 1-4 9-8z" fill="#4C5057"/>
<path transform="translate(705,1147)" d="m0 0 7 6 7 7v3l-7 6-3 4h-2v2l-5-2-11-11 1-3 8-7z" fill="#4D5157"/>
<path transform="translate(1488,935)" d="m0 0 5 3 9 9 1 3-7 6-6 7-4-2-11-11 2-4 5-5z" fill="#4C5056"/>
<path transform="translate(590,935)" d="m0 0 4 2 10 10 1 3-9 8-4 5-4-2-11-11 2-4z" fill="#4E5158"/>
<path transform="translate(1116,564)" d="m0 0 4 1 7 8 4 4-2 4-11 11-8-6-7-8 6-7z" fill="#4C5057"/>
<path transform="translate(1460,1061)" d="m0 0 7 6 8 7-12 14-3 1-8-7-5-5 1-4z" fill="#4C5057"/>
<path transform="translate(1401,850)" d="m0 0 4 1 11 11-1 4-11 11-5-2-1-3-4-2-5-6 2-4z" fill="#4B4F56"/>
<path transform="translate(1202,649)" d="m0 0 8 6 7 7-2 4-11 11-4-2-10-10-1-3 9-8z" fill="#4C5057"/>
<path transform="translate(1173,621)" d="m0 0 4 2 7 7 4 3-1 4-12 12-5-3-4-4v-2l-3-1-3-5 12-12z" fill="#4C5057"/>
<path transform="translate(1653,265)" d="m0 0 11 7 6 5-6 7-9 9-4-2-9-13 2-4h2v-2h2l2-4z" fill="#4C5057"/>
<path transform="translate(812,100)" d="m0 0 5 1-2 14-4 10-6-2-11-7-2-3 3-5 2-7z" fill="#4D5158"/>
<path transform="translate(1088,1433)" d="m0 0 4 2 7 7 4 3-2 4-10 11-5-1-10-10-1-3z" fill="#4A4E55"/>
<path transform="translate(1401,1119)" d="m0 0 4 1 9 9 2 1-1 5-12 12-5-4-5-6-4-3 2-4 7-8z" fill="#4D5157"/>
<path transform="translate(675,1119)" d="m0 0 4 1 11 11-1 4-7 6-4 5-5-2-10-10 1-4z" fill="#4B4F56"/>
<path transform="translate(618,1061)" d="m0 0 6 4 8 7 1 4-13 13-4-2-9-9-1-5 8-7z" fill="#4B4F56"/>
<path transform="translate(1535,209)" d="m0 0 6 1 14 5-1 8-2 9h-20l2-16z" fill="#4D5157"/>
<path transform="translate(791,60)" d="m0 0 5 1 9 8 3 5-1 5-11 6-5 1-8-8 1-7 4-7z" fill="#4C5057"/>
<path transform="translate(1145,1376)" d="m0 0 4 2 8 8 3 2-2 4-12 12-7-6-7-7 2-4z" fill="#4B4F56"/>
<path transform="translate(1374,1147)" d="m0 0 14 12-1 5-8 7-3 4-4-1-2-4-4-2-5-5 1-4z" fill="#4C5057"/>
<path transform="translate(646,1091)" d="m0 0 5 1 5 5v2l4 2 1 5-11 11-5-1-10-10 1-5 6-6h2z" fill="#4E5258"/>
<path transform="translate(1488,1033)" d="m0 0 4 2 11 11-12 14-3 1-13-13 2-4z" fill="#4B4F56"/>
<path transform="translate(1430,878)" d="m0 0 5 2 10 10-1 4-11 11-4-1-11-11 2-5 7-6z" fill="#4C4F56"/>
<path transform="translate(752,1633)" d="m0 0h19l1 1v11l-1 8-17 1-2-1-1-3v-15z" fill="#51555B"/>
<path transform="translate(677,849)" d="m0 0 5 5 9 8-3 5-10 10-4-1v-2h-2v-2h-2l-7-8 3-5 6-5z" fill="#4B4F56"/>
<path transform="translate(740,116)" d="m0 0 5 1 8 7-1 5-8 14-7-4-7-7-3-4 1-4 11-7z" fill="#4B4F56"/>
<path transform="translate(1173,1348)" d="m0 0 4 1 4 5 7 6-2 4-7 7-3 4-4-1-12-12 6-7z" fill="#494D54"/>
<path transform="translate(647,878)" d="m0 0 4 2 10 9 1 3-12 13-3 1v-2l-4-2-5-6-3-2 1-5z" fill="#4E5259"/>
<path transform="translate(961,564)" d="m0 0 4 1 7 8 5 5-14 14h-2l-7-8-6-7 11-10z" fill="#4C4F56"/>
<path transform="translate(1665,232)" d="m0 0h19l1 3-3 19-4 1-11-4-5-2 1-7 1-9z" fill="#4C5057"/>
<path transform="translate(933,592)" d="m0 0 4 2 7 8 4 4-7 8h-2l-2 4-4 2-11-11-2-1 1-4z" fill="#4A4E55"/>
<path transform="translate(752,1971)" d="m0 0h19l1 1v10l-1 9h-19l-1-2v-17z" fill="#52555C"/>
<path transform="translate(1458,907)" d="m0 0 4 1 11 11v4l-8 7-4 4-5-2-6-6v-2l-3-1-1-3 5-5z" fill="#4B4F56"/>
<path transform="translate(618,907)" d="m0 0 4 1 11 11-1 4-11 11h-3v-2l-4-2v-2l-4-2-4-4 2-4 8-8z" fill="#4A4E55"/>
<path transform="translate(1117,1404)" d="m0 0 5 5 9 8-2 4-10 11-4-1-11-11 1-4z" fill="#494D54"/>
<path transform="translate(1624,285)" d="m0 0 3 2 5 15v3l-11 2-12 1-1-3v-14l1-3z" fill="#4C4F56"/>
<path transform="translate(705,820)" d="m0 0 5 5 9 8-2 4-10 11-4-1-11-11 1-4z" fill="#4B4F56"/>
<path transform="translate(904,621)" d="m0 0 4 1 7 8 4 3-1 4-11 11-5-1-7-8-3-2 1-5 8-7 1-2h2z" fill="#4B4F56"/>
<path transform="translate(725,77)" d="m0 0 11 6 6 4 1 5-4 9-3 1-16-1v-10l4-12z" fill="#4C5057"/>
<path transform="translate(875,650)" d="m0 0 4 1 7 7 4 3-1 4-11 12-4-2-8-7-3-4 2-4z" fill="#4B4F55"/>
<path transform="translate(335,606)" d="m0 0h20v20h-20z" fill="#4A4D54"/>
<path transform="translate(780,126)" d="m0 0h3l8 13 1 4-8 4-15 3-1-1v-18l1-2 10-2z" fill="#51545B"/>
<path transform="translate(1201,1319)" d="m0 0 4 1 12 12-2 4-8 7-5 4-9-10-4-4 7-8z" fill="#4A4D54"/>
<path transform="translate(833,1633)" d="m0 0h17l3 1v19h-20l-1-3z" fill="#4C5057"/>
<path transform="translate(792,1633)" d="m0 0h18l2 1v18l-1 1h-19z" fill="#4E5158"/>
<path transform="translate(1431,1090)" d="m0 0 14 12-1 5-10 9-4 2-7-8-5-6 7-8z" fill="#4A4E55"/>
<path transform="translate(833,1971)" d="m0 0h20v19l-1 1h-16l-3-1z" fill="#4C5057"/>
<path transform="translate(792,1971)" d="m0 0h19l1 1v18l-1 1h-17l-2-1z" fill="#4F5359"/>
<path transform="translate(60,758)" d="m0 0h19l1 1v13l-1 6h-19z" fill="#4B4F56"/>
<path transform="translate(765,52)" d="m0 0 2 1v19l-10 4h-4l-9-15 2-4 13-4z" fill="#4B4F56"/>
<path transform="translate(1909 1e3)" d="m0 0h20v19l-1 1h-9l-10-1z" fill="#4A4E55"/>
<path transform="translate(347,1329)" d="m0 0h18l1 3-1 15-3 1h-14l-2-1v-17z" fill="#484C53"/>
<path transform="translate(281,852)" d="m0 0h17l1 1v16l-1 1h-16l-2-4v-11z" fill="#FDFDFD"/>
<path transform="translate(321,852)" d="m0 0h18v18h-17l-1-1z" fill="#FDFDFD"/>
<path transform="translate(241,852)" d="m0 0h15l2 2v15l-1 1h-15l-2-2v-15z" fill="#FDFDFD"/>
<path transform="translate(242,850)" d="m0 0h12l5 3v16l-3 3h-14l-4-4v-15l1-2zm-1 2-1 1v15l2 2h15l1-1v-15l-2-2z" fill="#FED564"/>
</svg>
